<svg version="1.1" id="Layer_1" xmlns="http://www.w3.org/2000/svg" xmlns:xlink="http://www.w3.org/1999/xlink" x="0px" y="0px"
	 width="100%" viewBox="0 0 871 178" enable-background="new 0 0 871 178" xml:space="preserve">
<path fill="#000000" opacity="1.000000" stroke="none" 
	d="
M872.000000,52.000000 
	C872.000000,94.313690 872.000000,136.627380 872.000000,179.000000 
	C605.643372,179.000000 339.286682,179.000000 72.178528,178.715088 
	C77.497314,173.245056 83.584229,168.079300 89.634697,162.871170 
	C106.506989,148.347809 123.482986,133.941681 140.182739,119.222313 
	C150.209778,110.384361 159.844894,101.098083 169.564682,91.916458 
	C176.557968,85.310341 183.783600,79.122551 193.206528,76.193062 
	C193.425766,76.124893 193.545395,75.736267 193.854324,75.291435 
	C192.852585,74.578880 191.870178,73.880089 190.953278,73.227882 
	C211.071365,52.210644 231.023666,31.366610 250.975967,10.522575 
	C250.317307,10.195914 249.658661,9.869254 249.000000,9.542593 
	C249.000000,6.695062 249.000000,3.847531 249.000000,1.000000 
	C456.666656,1.000000 664.333313,1.000000 872.000000,1.000000 
	C872.000000,14.754310 872.000000,28.412142 871.730713,42.833359 
	C870.870117,43.646317 870.182190,43.515560 869.702026,43.772667 
	C863.194275,47.257019 856.750854,50.862484 850.222778,54.307709 
	C829.044495,65.484634 808.026367,76.991676 786.540588,87.545013 
	C778.934631,91.280861 770.374512,94.191895 761.381104,91.048386 
	C760.491333,90.737366 759.397766,91.007408 758.398743,91.011162 
	C755.010010,91.023918 751.618835,90.960442 748.233032,91.067665 
	C740.539246,91.311325 732.723938,90.911949 725.200806,92.196129 
	C720.424133,93.011497 715.998291,95.209961 710.779358,95.242310 
	C706.184143,95.270805 701.601685,97.346367 697.013550,98.517929 
	C697.106323,99.168098 697.199036,99.818268 697.291809,100.468437 
	C701.756226,100.978966 706.214478,101.854515 710.686218,101.929779 
	C722.838135,102.134331 734.996338,101.938591 747.150635,102.051186 
	C749.618591,102.074043 752.080505,102.752937 754.821472,103.171600 
	C742.301453,110.606270 730.349792,117.703438 718.497070,124.741867 
	C720.479858,129.566727 723.296570,131.631622 726.848755,129.910904 
	C742.890991,122.139847 759.181824,114.734428 774.542358,105.758667 
	C783.820251,100.337257 793.397217,103.817635 802.429688,100.724190 
	C802.724731,101.276176 803.019775,101.828171 803.314819,102.380157 
	C780.035278,123.815453 756.755737,145.250748 732.907959,167.209305 
	C737.474365,169.582565 740.407837,167.603745 743.569641,166.449310 
	C743.846802,166.801575 743.964600,166.936981 744.173523,167.421249 
	C745.546448,167.310455 747.077393,167.155487 748.070557,166.343079 
	C756.279724,159.628021 764.544006,152.966705 772.496338,145.954285 
	C788.510376,131.833054 804.256653,117.407585 820.309692,103.331612 
	C823.625732,100.423996 827.798035,98.492882 831.499939,96.159462 
	C831.679871,95.112717 831.427795,93.272430 832.228088,92.417587 
	C844.885803,78.898918 857.674011,65.502342 870.472839,52.116524 
	C870.735352,51.841953 871.480164,52.028538 872.000000,52.000000 
M283.335510,61.269070 
	C283.482208,61.372616 283.628876,61.476162 283.327301,62.107735 
	C258.625610,89.714897 232.991013,116.532173 210.547775,146.051529 
	C210.907852,146.398193 211.267914,146.744873 211.627991,147.091537 
	C213.192673,146.367111 214.757370,145.642685 216.599609,144.789749 
	C216.907761,146.383209 217.162842,147.702194 217.636261,150.150269 
	C223.841095,145.297119 231.080917,143.801086 235.544998,137.218384 
	C239.777863,130.976578 245.237717,125.566887 249.544037,120.511963 
	C259.839783,127.686104 269.187805,134.655472 278.992126,140.909439 
	C289.820526,147.816666 301.025726,154.139893 312.151276,160.571396 
	C316.871185,163.299911 321.995392,165.358826 326.583221,168.276581 
	C330.216125,170.587021 330.760284,165.559021 333.389618,166.079529 
	C333.138763,165.041245 332.887909,164.002960 332.383636,161.915924 
	C336.746613,162.319885 340.834381,162.698364 344.994507,163.849075 
	C346.308868,168.449539 347.634033,164.214172 349.066528,163.539566 
	C347.961578,163.156708 346.856659,162.773834 345.274323,161.850082 
	C327.652435,151.912201 310.023438,141.986923 292.411316,132.031754 
	C281.632202,125.938889 271.808136,118.607666 262.437286,108.878571 
	C266.496704,108.526161 269.833191,108.850739 272.740387,107.884148 
	C291.189545,101.750099 310.005188,96.377960 327.736115,88.566727 
	C336.695160,84.619881 345.315247,78.162766 351.258911,69.329109 
	C355.178650,63.503414 356.627472,56.002953 353.046722,52.755363 
	C347.751801,47.953125 341.631683,44.258297 334.170013,44.041954 
	C327.347778,43.844151 320.514526,43.938564 313.687622,44.023888 
	C309.817352,44.072254 305.937164,44.628551 302.098267,44.831985 
	C297.117676,45.095917 292.345520,48.337769 287.376923,49.973625 
	C275.511078,53.880314 264.429504,59.334099 252.863098,66.195190 
	C254.849594,66.823601 255.733780,67.103310 255.731323,67.102531 
	C254.629227,68.566673 253.462830,70.116249 252.296432,71.665833 
	C254.034515,71.525017 255.585983,70.936783 256.862518,69.981262 
	C262.217896,65.972679 268.933624,66.179298 274.871002,64.005135 
	C277.570343,63.016663 280.241364,61.950806 283.335510,61.269070 
M624.335510,61.269005 
	C624.482178,61.372570 624.628906,61.476139 624.327271,62.107719 
	C599.625610,89.714912 573.991028,116.532196 551.547791,146.051514 
	C551.907837,146.398193 552.267883,146.744873 552.627991,147.091553 
	C554.192688,146.367142 555.757385,145.642715 557.599548,144.789871 
	C557.907654,146.383240 558.162781,147.702209 558.636230,150.150284 
	C564.841125,145.297119 572.080933,143.801056 576.544983,137.218338 
	C580.777832,130.976532 586.237732,125.566872 590.544067,120.511955 
	C600.839844,127.686111 610.187805,134.655472 619.992126,140.909470 
	C630.820557,147.816696 642.025757,154.139877 653.151306,160.571396 
	C657.871216,163.299881 662.995483,165.358810 667.583191,168.276642 
	C671.216309,170.587326 671.760315,165.558929 674.389709,166.079453 
	C674.138733,165.041199 673.887817,164.002930 673.383362,161.915894 
	C677.753235,162.320511 681.837769,162.698715 685.994507,163.849106 
	C687.308899,168.449326 688.633972,164.214279 690.076904,163.543137 
	C688.968506,163.159103 687.860168,162.775055 686.274414,161.850204 
	C668.652527,151.912262 651.023438,141.986969 633.411316,132.031723 
	C622.632202,125.938820 612.808044,118.607674 603.437256,108.878578 
	C607.496643,108.526169 610.833130,108.850777 613.740417,107.884163 
	C632.189575,101.750114 651.005066,96.377792 668.736145,88.566765 
	C677.695374,84.619972 686.315125,78.162537 692.258972,69.329071 
	C696.178833,63.503384 697.627441,56.002903 694.046631,52.755352 
	C688.751709,47.953236 682.631775,44.258087 675.169922,44.041916 
	C668.347656,43.844276 661.514404,43.938656 654.687500,44.023853 
	C650.817200,44.072151 646.937073,44.628700 643.098145,44.832047 
	C638.117615,45.095871 633.345337,48.337677 628.376770,49.973640 
	C616.511108,53.880547 605.429138,59.333599 593.863525,66.195580 
	C595.849731,66.823685 596.733948,67.103310 596.731323,67.102486 
	C595.629456,68.566643 594.463196,70.116348 593.296936,71.666046 
	C595.034851,71.525345 596.585999,70.936806 597.862427,69.981300 
	C603.217651,65.972450 609.933655,66.179680 615.870911,64.005173 
	C618.570251,63.016552 621.241272,61.950855 624.335510,61.269005 
M493.257690,106.345367 
	C493.144379,106.206055 493.031097,106.066750 493.001129,105.167984 
	C494.674286,100.602974 496.347473,96.037964 498.020660,91.472954 
	C497.665344,91.148399 497.310028,90.823837 496.954712,90.499275 
	C494.450867,92.693886 491.299225,94.469322 489.559235,97.158234 
	C483.232391,106.935448 477.491608,117.151344 468.055450,124.405243 
	C453.247894,135.788376 437.003052,144.314941 418.831909,149.125809 
	C413.909882,150.428925 410.935120,148.079330 407.776520,145.288010 
	C404.576447,142.460098 402.446899,138.961990 404.698029,134.923569 
	C407.964233,129.064087 411.257019,123.002426 415.681793,118.048088 
	C427.062378,105.305450 439.868500,94.072853 454.879852,85.654968 
	C463.830444,80.635780 472.706512,75.406151 481.993713,71.082161 
	C497.830109,63.708946 515.989136,64.660202 532.099121,57.380344 
	C538.303772,54.576565 546.270447,55.648228 553.439636,55.014660 
	C556.293823,54.762424 559.161438,54.649513 562.025085,54.522465 
	C563.254883,54.467907 564.496826,54.600319 565.713867,54.468719 
	C565.853394,54.453636 565.986267,52.740238 565.922913,52.726387 
	C564.529663,52.421898 563.096252,52.013645 561.694214,52.085812 
	C555.030579,52.428841 548.374023,52.909409 541.714905,53.341019 
	C541.687744,52.820362 541.660645,52.299706 541.633484,51.779049 
	C549.755371,50.969624 557.877319,50.160202 566.234558,49.327328 
	C563.775879,45.298943 560.624756,43.582989 556.204895,43.967403 
	C550.799011,44.437580 545.325134,44.326801 539.964050,45.069538 
	C528.251221,46.692242 516.486084,48.203712 504.936462,50.669891 
	C490.965027,53.653194 477.722168,58.872066 464.548187,64.568512 
	C438.736359,75.729568 414.254089,88.588287 394.896851,109.591034 
	C385.670868,119.601303 378.980286,130.657547 375.671448,144.272110 
	C372.309875,158.103577 384.442474,168.668732 394.411682,167.921967 
	C402.673859,167.303085 410.983704,166.501587 419.099091,164.901672 
	C440.191040,160.743515 459.260071,151.516037 475.424622,137.662781 
	C489.863892,125.288094 502.784668,111.148590 513.071045,94.864479 
	C516.881409,88.832283 520.137024,82.851120 518.706421,75.201469 
	C517.599365,75.201469 516.517029,75.201469 514.991028,75.201469 
	C514.991028,76.391273 515.326904,77.644691 514.923462,78.578781 
	C513.985962,80.749352 512.691772,82.765877 511.542175,84.844833 
	C507.786713,82.686699 507.644989,86.427582 506.450226,88.111214 
	C502.071106,94.281990 497.840759,100.558350 493.257690,106.345367 
z"/>
<path fill="#000000" opacity="1.000000" stroke="none" 
	d="
M1.000000,79.000000 
	C1.000000,53.035473 1.000000,27.070944 1.000000,1.000000 
	C81.687531,1.000000 162.375107,1.000000 243.820190,1.296824 
	C243.767578,2.389410 243.087326,3.424464 242.127914,3.945212 
	C226.613190,12.366342 211.121979,20.834030 195.506134,29.064819 
	C175.319397,39.704838 154.944946,49.990807 134.820343,60.745529 
	C126.894379,64.981216 119.167168,69.113914 109.754333,68.077263 
	C108.661339,67.956894 107.485619,69.123390 106.290001,69.300919 
	C102.353668,69.885406 97.497383,71.895760 94.679100,70.328690 
	C91.622353,68.629013 89.493172,69.303520 86.925797,69.601692 
	C84.416664,69.893097 81.920517,70.993362 79.464027,70.865700 
	C76.342163,70.703468 73.282188,69.201042 70.166855,69.091408 
	C62.553703,68.823463 54.914112,68.796097 47.304993,69.127388 
	C43.146549,69.308434 39.028431,70.415672 34.892128,71.105240 
	C34.971054,71.739182 35.049984,72.373123 35.128910,73.007065 
	C38.252270,73.007065 41.375629,73.007065 44.498989,73.007065 
	C37.014000,74.000008 29.555492,73.992638 22.097031,74.007736 
	C20.943146,74.010071 19.738405,73.919899 18.644207,74.205681 
	C12.747653,75.745781 6.878566,77.391037 1.000000,79.000000 
z"/>
<path fill="#FFFFFF" opacity="1.000000" stroke="none" 
	d="
M1.000000,79.375000 
	C6.878566,77.391037 12.747653,75.745781 18.644207,74.205681 
	C19.738405,73.919899 20.943146,74.010071 22.097031,74.007736 
	C29.555492,73.992638 37.014000,74.000008 44.498989,73.007065 
	C41.375629,73.007065 38.252270,73.007065 35.128910,73.007065 
	C35.049984,72.373123 34.971054,71.739182 34.892128,71.105240 
	C39.028431,70.415672 43.146549,69.308434 47.304993,69.127388 
	C54.914112,68.796097 62.553703,68.823463 70.166855,69.091408 
	C73.282188,69.201042 76.342163,70.703468 79.464027,70.865700 
	C81.920517,70.993362 84.416664,69.893097 86.925797,69.601692 
	C89.493172,69.303520 91.622353,68.629013 94.679100,70.328690 
	C97.497383,71.895760 102.353668,69.885406 106.290001,69.300919 
	C107.485619,69.123390 108.661339,67.956894 109.754333,68.077263 
	C119.167168,69.113914 126.894379,64.981216 134.820343,60.745529 
	C154.944946,49.990807 175.319397,39.704838 195.506134,29.064819 
	C211.121979,20.834030 226.613190,12.366342 242.127914,3.945212 
	C243.087326,3.424464 243.767578,2.389410 244.288849,1.296824 
	C245.388885,1.000000 246.777786,1.000000 248.583344,1.000000 
	C249.000000,3.847531 249.000000,6.695062 249.000000,9.542593 
	C249.658661,9.869254 250.317307,10.195914 250.975967,10.522575 
	C231.023666,31.366610 211.071365,52.210644 190.953278,73.227882 
	C191.870178,73.880089 192.852585,74.578880 193.854324,75.291435 
	C193.545395,75.736267 193.425766,76.124893 193.206528,76.193062 
	C183.783600,79.122551 176.557968,85.310341 169.564682,91.916458 
	C159.844894,101.098083 150.209778,110.384361 140.182739,119.222313 
	C123.482986,133.941681 106.506989,148.347809 89.634697,162.871170 
	C83.584229,168.079300 77.497314,173.245056 71.713516,178.715088 
	C70.933327,179.000000 69.866661,179.000000 68.402138,178.617615 
	C68.714622,176.464783 69.424950,174.694351 70.135284,172.923920 
	C69.750229,172.698318 69.365173,172.472733 68.980118,172.247147 
	C67.320076,174.498093 65.660034,176.749039 64.000000,179.000000 
	C60.638714,179.000000 57.277424,179.000000 53.459351,178.644562 
	C53.531452,177.494919 53.926949,176.555954 54.608784,175.927765 
	C70.840042,160.973251 87.230209,146.188675 103.322525,131.086609 
	C119.494507,115.909767 135.379013,100.426506 151.362625,85.049606 
	C151.740051,84.686501 151.798920,83.992264 152.316925,82.644516 
	C145.137054,83.125900 138.622955,83.809898 132.098480,83.929970 
	C125.681259,84.048058 119.870705,85.176903 113.999672,88.299881 
	C94.130219,98.868980 73.895203,108.748459 53.885159,119.056999 
	C47.616066,122.286636 41.644840,126.163437 33.998547,123.133125 
	C34.231220,122.127785 34.540558,120.791191 34.840893,119.493515 
	C33.824425,119.493515 32.937157,119.493515 31.317003,119.493515 
	C46.827484,103.565186 67.714592,97.531784 84.599701,84.742546 
	C70.112282,84.000000 55.754143,84.259720 41.409908,83.924622 
	C27.932306,83.609756 14.469381,82.666672 1.000000,82.000000 
	C1.000000,81.250000 1.000000,80.500000 1.000000,79.375000 
M188.629349,50.896061 
	C188.021027,50.481285 187.152832,49.565262 186.842896,49.725971 
	C181.017365,52.746410 175.240494,55.862656 169.490814,59.026768 
	C165.546051,61.197613 161.658295,63.472065 157.745056,65.700195 
	C165.612411,67.167007 172.760117,66.768692 178.495544,60.995750 
	C181.680679,57.789795 184.876755,54.594696 188.629349,50.896061 
M41.295528,121.055084 
	C40.889565,121.318237 40.483597,121.581398 40.077629,121.844543 
	C40.646057,121.791512 41.214489,121.738480 41.295528,121.055084 
M71.295532,171.055084 
	C70.889565,171.318237 70.483589,171.581375 70.077621,171.844528 
	C70.646042,171.791519 71.214462,171.738510 71.295532,171.055084 
z"/>
<path fill="#000000" opacity="1.000000" stroke="none" 
	d="
M1.000000,82.468658 
	C14.469381,82.666672 27.932306,83.609756 41.409908,83.924622 
	C55.754143,84.259720 70.112282,84.000000 84.599701,84.742546 
	C67.714592,97.531784 46.827484,103.565186 31.317003,119.493515 
	C32.937157,119.493515 33.824425,119.493515 34.840893,119.493515 
	C34.540558,120.791191 34.231220,122.127785 33.998547,123.133125 
	C41.644840,126.163437 47.616066,122.286636 53.885159,119.056999 
	C73.895203,108.748459 94.130219,98.868980 113.999672,88.299881 
	C119.870705,85.176903 125.681259,84.048058 132.098480,83.929970 
	C138.622955,83.809898 145.137054,83.125900 152.316925,82.644516 
	C151.798920,83.992264 151.740051,84.686501 151.362625,85.049606 
	C135.379013,100.426506 119.494507,115.909767 103.322525,131.086609 
	C87.230209,146.188675 70.840042,160.973251 54.608784,175.927765 
	C53.926949,176.555954 53.531452,177.494919 53.001282,178.644562 
	C35.717712,179.000000 18.435423,179.000000 1.000000,179.000000 
	C1.000000,146.979263 1.000000,114.958290 1.000000,82.468658 
z"/>
<path fill="#FFFFFF" opacity="1.000000" stroke="none" 
	d="
M872.000000,51.583336 
	C871.480164,52.028538 870.735352,51.841953 870.472839,52.116524 
	C857.674011,65.502342 844.885803,78.898918 832.228088,92.417587 
	C831.427795,93.272430 831.679871,95.112717 831.499939,96.159462 
	C827.798035,98.492882 823.625732,100.423996 820.309692,103.331612 
	C804.256653,117.407585 788.510376,131.833054 772.496338,145.954285 
	C764.544006,152.966705 756.279724,159.628021 748.070557,166.343079 
	C747.077393,167.155487 745.546448,167.310455 744.487427,167.291489 
	C744.753235,165.978714 744.796326,165.144562 744.894958,163.234940 
	C744.068604,164.903259 743.739441,165.567856 743.410217,166.232452 
	C740.407837,167.603745 737.474365,169.582565 732.907959,167.209305 
	C756.755737,145.250748 780.035278,123.815453 803.314819,102.380157 
	C803.019775,101.828171 802.724731,101.276176 802.429688,100.724190 
	C793.397217,103.817635 783.820251,100.337257 774.542358,105.758667 
	C759.181824,114.734428 742.890991,122.139847 726.848755,129.910904 
	C723.296570,131.631622 720.479858,129.566727 718.497070,124.741867 
	C730.349792,117.703438 742.301453,110.606270 754.821472,103.171600 
	C752.080505,102.752937 749.618591,102.074043 747.150635,102.051186 
	C734.996338,101.938591 722.838135,102.134331 710.686218,101.929779 
	C706.214478,101.854515 701.756226,100.978966 697.291809,100.468437 
	C697.199036,99.818268 697.106323,99.168098 697.013550,98.517929 
	C701.601685,97.346367 706.184143,95.270805 710.779358,95.242310 
	C715.998291,95.209961 720.424133,93.011497 725.200806,92.196129 
	C732.723938,90.911949 740.539246,91.311325 748.233032,91.067665 
	C751.618835,90.960442 755.010010,91.023918 758.398743,91.011162 
	C759.397766,91.007408 760.491333,90.737366 761.381104,91.048386 
	C770.374512,94.191895 778.934631,91.280861 786.540588,87.545013 
	C808.026367,76.991676 829.044495,65.484634 850.222778,54.307709 
	C856.750854,50.862484 863.194275,47.257019 869.702026,43.772667 
	C870.182190,43.515560 870.870117,43.646317 871.730713,43.298374 
	C872.000000,43.750000 872.000000,44.500000 871.690247,45.336437 
	C871.106445,45.938000 870.832397,46.453121 870.558289,46.968239 
	C871.038879,46.978821 871.519409,46.989410 872.000000,47.000000 
	C872.000000,48.388889 872.000000,49.777779 872.000000,51.583336 
M809.615723,89.882477 
	C816.417542,89.272728 822.044800,86.740479 824.811829,79.397194 
	C819.224121,82.557106 813.636475,85.717010 808.048767,88.876915 
	C808.299622,89.238403 808.550415,89.599892 809.615723,89.882477 
M826.424133,79.420265 
	C826.847778,79.116188 827.271362,78.812111 827.695007,78.508018 
	C827.117004,78.586021 826.538940,78.664024 826.424133,79.420265 
z"/>
<path fill="#000000" opacity="1.000000" stroke="none" 
	d="
M64.399994,179.000000 
	C65.660034,176.749039 67.320076,174.498093 68.980118,172.247147 
	C69.365173,172.472733 69.750229,172.698318 70.135284,172.923920 
	C69.424950,174.694351 68.714622,176.464783 68.002144,178.617615 
	C66.933327,179.000000 65.866661,179.000000 64.399994,179.000000 
z"/>
<path fill="#000000" opacity="1.000000" stroke="none" 
	d="
M872.000000,46.750000 
	C871.519409,46.989410 871.038879,46.978821 870.558289,46.968239 
	C870.832397,46.453121 871.106445,45.938000 871.690247,45.711437 
	C872.000000,46.000000 872.000000,46.500000 872.000000,46.750000 
z"/>
<path fill="#FFFFFF" opacity="1.000000" stroke="none" 
	d="
M493.554413,106.794952 
	C497.840759,100.558350 502.071106,94.281990 506.450226,88.111214 
	C507.644989,86.427582 507.786713,82.686699 511.542175,84.844833 
	C512.691772,82.765877 513.985962,80.749352 514.923462,78.578781 
	C515.326904,77.644691 514.991028,76.391273 514.991028,75.201469 
	C516.517029,75.201469 517.599365,75.201469 518.706421,75.201469 
	C520.137024,82.851120 516.881409,88.832283 513.071045,94.864479 
	C502.784668,111.148590 489.863892,125.288094 475.424622,137.662781 
	C459.260071,151.516037 440.191040,160.743515 419.099091,164.901672 
	C410.983704,166.501587 402.673859,167.303085 394.411682,167.921967 
	C384.442474,168.668732 372.309875,158.103577 375.671448,144.272110 
	C378.980286,130.657547 385.670868,119.601303 394.896851,109.591034 
	C414.254089,88.588287 438.736359,75.729568 464.548187,64.568512 
	C477.722168,58.872066 490.965027,53.653194 504.936462,50.669891 
	C516.486084,48.203712 528.251221,46.692242 539.964050,45.069538 
	C545.325134,44.326801 550.799011,44.437580 556.204895,43.967403 
	C560.624756,43.582989 563.775879,45.298943 566.234558,49.327328 
	C557.877319,50.160202 549.755371,50.969624 541.633484,51.779049 
	C541.660645,52.299706 541.687744,52.820362 541.714905,53.341019 
	C548.374023,52.909409 555.030579,52.428841 561.694214,52.085812 
	C563.096252,52.013645 564.529663,52.421898 565.922913,52.726387 
	C565.986267,52.740238 565.853394,54.453636 565.713867,54.468719 
	C564.496826,54.600319 563.254883,54.467907 562.025085,54.522465 
	C559.161438,54.649513 556.293823,54.762424 553.439636,55.014660 
	C546.270447,55.648228 538.303772,54.576565 532.099121,57.380344 
	C515.989136,64.660202 497.830109,63.708946 481.993713,71.082161 
	C472.706512,75.406151 463.830444,80.635780 454.879852,85.654968 
	C439.868500,94.072853 427.062378,105.305450 415.681793,118.048088 
	C411.257019,123.002426 407.964233,129.064087 404.698029,134.923569 
	C402.446899,138.961990 404.576447,142.460098 407.776520,145.288010 
	C410.935120,148.079330 413.909882,150.428925 418.831909,149.125809 
	C437.003052,144.314941 453.247894,135.788376 468.055450,124.405243 
	C477.491608,117.151344 483.232391,106.935448 489.559235,97.158234 
	C491.299225,94.469322 494.450867,92.693886 496.954712,90.499275 
	C497.310028,90.823837 497.665344,91.148399 498.020660,91.472954 
	C496.347473,96.037964 494.674286,100.602974 492.679077,105.644341 
	C492.316559,106.660370 492.276123,107.200043 492.235687,107.739708 
	C492.675262,107.424782 493.114838,107.109863 493.554413,106.794952 
M390.895874,121.670113 
	C386.897278,127.387932 383.768951,133.448242 383.451263,140.615341 
	C386.328217,134.434402 389.205200,128.253479 392.642975,121.879303 
	C392.683411,121.339630 392.723877,120.799957 392.764313,120.260292 
	C392.324738,120.575211 391.885162,120.890129 390.895874,121.670113 
z"/>
<path fill="#FFFFFF" opacity="1.000000" stroke="none" 
	d="
M685.922241,163.076920 
	C681.837769,162.698715 677.753235,162.320511 673.383362,161.915894 
	C673.887817,164.002930 674.138733,165.041199 674.389709,166.079453 
	C671.760315,165.558929 671.216309,170.587326 667.583191,168.276642 
	C662.995483,165.358810 657.871216,163.299881 653.151306,160.571396 
	C642.025757,154.139877 630.820557,147.816696 619.992126,140.909470 
	C610.187805,134.655472 600.839844,127.686111 590.544067,120.511955 
	C586.237732,125.566872 580.777832,130.976532 576.544983,137.218338 
	C572.080933,143.801056 564.841125,145.297119 558.636230,150.150284 
	C558.162781,147.702209 557.907654,146.383240 557.599548,144.789871 
	C555.757385,145.642715 554.192688,146.367142 552.627991,147.091553 
	C552.267883,146.744873 551.907837,146.398193 551.547791,146.051514 
	C573.991028,116.532196 599.625610,89.714912 624.774170,61.652466 
	C625.352783,60.861881 625.484497,60.526546 625.616211,60.191216 
	C625.052551,60.434181 624.488831,60.677147 623.925171,60.920120 
	C621.241272,61.950855 618.570251,63.016552 615.870911,64.005173 
	C609.933655,66.179680 603.217651,65.972450 597.862427,69.981300 
	C596.585999,70.936806 595.034851,71.525345 593.296936,71.666046 
	C594.463196,70.116348 595.629456,68.566643 596.731323,67.102486 
	C596.733948,67.103310 595.849731,66.823685 593.863525,66.195580 
	C605.429138,59.333599 616.511108,53.880547 628.376770,49.973640 
	C633.345337,48.337677 638.117615,45.095871 643.098145,44.832047 
	C646.937073,44.628700 650.817200,44.072151 654.687500,44.023853 
	C661.514404,43.938656 668.347656,43.844276 675.169922,44.041916 
	C682.631775,44.258087 688.751709,47.953236 694.046631,52.755352 
	C697.627441,56.002903 696.178833,63.503384 692.258972,69.329071 
	C686.315125,78.162537 677.695374,84.619972 668.736145,88.566765 
	C651.005066,96.377792 632.189575,101.750114 613.740417,107.884163 
	C610.833130,108.850777 607.496643,108.526169 603.437256,108.878578 
	C612.808044,118.607674 622.632202,125.938820 633.411316,132.031723 
	C651.023438,141.986969 668.652527,151.912262 686.300049,162.285278 
	C686.191284,162.839188 686.056763,162.958054 685.922241,163.076920 
M621.634705,93.002220 
	C623.205872,92.667496 624.856506,92.538048 626.335388,91.965141 
	C636.892944,87.875320 647.453125,83.786865 657.922546,79.479317 
	C660.552795,78.397110 662.841187,75.291397 665.312561,75.261528 
	C670.603088,75.197601 672.860840,71.999702 674.919739,68.273766 
	C676.095642,66.145645 676.681091,63.691257 677.742798,60.813614 
	C671.059448,59.573494 664.157898,58.113979 657.194946,57.059353 
	C651.940491,56.263500 647.395325,57.370033 643.523010,61.808567 
	C636.898438,69.401932 629.632202,76.432098 622.741882,83.798340 
	C618.835632,87.974426 615.141052,92.348557 611.351135,96.633492 
	C611.533630,97.019783 611.716187,97.406082 611.898682,97.792374 
	C614.864685,96.206375 617.830627,94.620384 621.634705,93.002220 
z"/>
<path fill="#FFFFFF" opacity="1.000000" stroke="none" 
	d="
M344.922180,163.076859 
	C340.834381,162.698364 336.746613,162.319885 332.383636,161.915924 
	C332.887909,164.002960 333.138763,165.041245 333.389618,166.079529 
	C330.760284,165.559021 330.216125,170.587021 326.583221,168.276581 
	C321.995392,165.358826 316.871185,163.299911 312.151276,160.571396 
	C301.025726,154.139893 289.820526,147.816666 278.992126,140.909439 
	C269.187805,134.655472 259.839783,127.686104 249.544037,120.511963 
	C245.237717,125.566887 239.777863,130.976578 235.544998,137.218384 
	C231.080917,143.801086 223.841095,145.297119 217.636261,150.150269 
	C217.162842,147.702194 216.907761,146.383209 216.599609,144.789749 
	C214.757370,145.642685 213.192673,146.367111 211.627991,147.091537 
	C211.267914,146.744873 210.907852,146.398193 210.547775,146.051529 
	C232.991013,116.532173 258.625610,89.714897 283.774231,61.652470 
	C284.352844,60.861877 284.484558,60.526550 284.616272,60.191223 
	C284.052582,60.434166 283.488892,60.677113 282.925232,60.920059 
	C280.241364,61.950806 277.570343,63.016663 274.871002,64.005135 
	C268.933624,66.179298 262.217896,65.972679 256.862518,69.981262 
	C255.585983,70.936783 254.034515,71.525017 252.296432,71.665833 
	C253.462830,70.116249 254.629227,68.566673 255.731323,67.102531 
	C255.733780,67.103310 254.849594,66.823601 252.863098,66.195190 
	C264.429504,59.334099 275.511078,53.880314 287.376923,49.973625 
	C292.345520,48.337769 297.117676,45.095917 302.098267,44.831985 
	C305.937164,44.628551 309.817352,44.072254 313.687622,44.023888 
	C320.514526,43.938564 327.347778,43.844151 334.170013,44.041954 
	C341.631683,44.258297 347.751801,47.953125 353.046722,52.755363 
	C356.627472,56.002953 355.178650,63.503414 351.258911,69.329109 
	C345.315247,78.162766 336.695160,84.619881 327.736115,88.566727 
	C310.005188,96.377960 291.189545,101.750099 272.740387,107.884148 
	C269.833191,108.850739 266.496704,108.526161 262.437286,108.878571 
	C271.808136,118.607666 281.632202,125.938889 292.411316,132.031754 
	C310.023438,141.986923 327.652435,151.912201 345.299988,162.285187 
	C345.191193,162.839142 345.056671,162.958008 344.922180,163.076859 
M282.984467,82.526024 
	C278.741119,87.252007 274.497742,91.977989 270.254395,96.703972 
	C274.346741,96.075668 277.833832,94.175400 281.555969,93.058762 
	C294.594421,89.147278 307.941071,86.088600 319.308716,77.992294 
	C320.871063,76.879532 322.670685,75.059181 324.236816,75.179230 
	C329.902832,75.613510 331.953186,71.805054 333.978546,67.840660 
	C335.024567,65.793221 335.727234,63.570362 336.837067,60.796879 
	C329.912781,59.551651 322.844238,58.127243 315.722992,57.051311 
	C310.596100,56.276695 306.242462,57.542259 302.541565,61.805183 
	C296.475586,68.792320 289.860748,75.302948 282.984467,82.526024 
z"/>
<path fill="#FFFFFF" opacity="1.000000" stroke="none" 
	d="
M345.538696,162.555634 
	C346.856659,162.773834 347.961578,163.156708 349.066528,163.539566 
	C347.634033,164.214172 346.308868,168.449539 344.958344,163.462967 
	C345.056671,162.958008 345.191193,162.839142 345.538696,162.555634 
z"/>
<path fill="#FFFFFF" opacity="1.000000" stroke="none" 
	d="
M686.538757,162.555679 
	C687.860168,162.775055 688.968506,163.159103 690.076904,163.543137 
	C688.633972,164.214279 687.308899,168.449326 685.958374,163.463013 
	C686.056763,162.958054 686.191284,162.839188 686.538757,162.555679 
z"/>
<path fill="#000000" opacity="1.000000" stroke="none" 
	d="
M188.348633,51.145378 
	C184.876755,54.594696 181.680679,57.789795 178.495544,60.995750 
	C172.760117,66.768692 165.612411,67.167007 157.745056,65.700195 
	C161.658295,63.472065 165.546051,61.197613 169.490814,59.026768 
	C175.240494,55.862656 181.017365,52.746410 186.842896,49.725971 
	C187.152832,49.565262 188.021027,50.481285 188.348633,51.145378 
z"/>
<path fill="#000000" opacity="1.000000" stroke="none" 
	d="
M41.539223,121.370270 
	C41.214489,121.738480 40.646057,121.791512 40.077629,121.844543 
	C40.483597,121.581398 40.889565,121.318237 41.539223,121.370270 
z"/>
<path fill="#000000" opacity="1.000000" stroke="none" 
	d="
M71.539207,171.370300 
	C71.214462,171.738510 70.646042,171.791519 70.077621,171.844528 
	C70.483589,171.581375 70.889565,171.318237 71.539207,171.370300 
z"/>
<path fill="#000000" opacity="1.000000" stroke="none" 
	d="
M809.208496,89.921928 
	C808.550415,89.599892 808.299622,89.238403 808.048767,88.876923 
	C813.636475,85.717010 819.224121,82.557106 824.811829,79.397194 
	C822.044800,86.740479 816.417542,89.272728 809.208496,89.921928 
z"/>
<path fill="#000000" opacity="1.000000" stroke="none" 
	d="
M743.569641,166.449310 
	C743.739441,165.567856 744.068604,164.903259 744.894958,163.234940 
	C744.796326,165.144562 744.753235,165.978714 744.396240,166.942627 
	C743.964600,166.936981 743.846802,166.801575 743.569641,166.449310 
z"/>
<path fill="#000000" opacity="1.000000" stroke="none" 
	d="
M826.192505,79.081146 
	C826.538940,78.664024 827.117004,78.586021 827.695007,78.508026 
	C827.271362,78.812111 826.847778,79.116188 826.192505,79.081146 
z"/>
<path fill="#000000" opacity="1.000000" stroke="none" 
	d="
M392.082184,122.072548 
	C389.205200,128.253479 386.328217,134.434402 383.451263,140.615341 
	C383.768951,133.448242 386.897278,127.387932 391.319092,121.662369 
	C391.855621,121.793945 391.968903,121.933250 392.082184,122.072548 
z"/>
<path fill="#000000" opacity="1.000000" stroke="none" 
	d="
M493.406067,106.570160 
	C493.114838,107.109863 492.675262,107.424782 492.235687,107.739708 
	C492.276123,107.200043 492.316559,106.660370 492.637421,106.024078 
	C493.031097,106.066750 493.144379,106.206055 493.406067,106.570160 
z"/>
<path fill="#000000" opacity="1.000000" stroke="none" 
	d="
M391.593933,121.429840 
	C391.885162,120.890129 392.324738,120.575211 392.764313,120.260284 
	C392.723877,120.799957 392.683411,121.339630 392.362579,121.975922 
	C391.968903,121.933250 391.855621,121.793945 391.593933,121.429840 
z"/>
<path fill="#000000" opacity="1.000000" stroke="none" 
	d="
M621.215637,93.018303 
	C617.830627,94.620384 614.864685,96.206375 611.898682,97.792374 
	C611.716187,97.406082 611.533630,97.019783 611.351135,96.633492 
	C615.141052,92.348557 618.835632,87.974426 622.741882,83.798340 
	C629.632202,76.432098 636.898438,69.401932 643.523010,61.808567 
	C647.395325,57.370033 651.940491,56.263500 657.194946,57.059353 
	C664.157898,58.113979 671.059448,59.573494 677.742798,60.813614 
	C676.681091,63.691257 676.095642,66.145645 674.919739,68.273766 
	C672.860840,71.999702 670.603088,75.197601 665.312561,75.261528 
	C662.841187,75.291397 660.552795,78.397110 657.922546,79.479317 
	C647.453125,83.786865 636.892944,87.875320 626.335388,91.965141 
	C624.856506,92.538048 623.205872,92.667496 621.215637,93.018303 
z"/>
<path fill="#000000" opacity="1.000000" stroke="none" 
	d="
M624.130371,61.094559 
	C624.488831,60.677147 625.052551,60.434181 625.616211,60.191216 
	C625.484497,60.526546 625.352783,60.861881 624.998352,61.388462 
	C624.628906,61.476139 624.482178,61.372570 624.130371,61.094559 
z"/>
<path fill="#000000" opacity="1.000000" stroke="none" 
	d="
M283.230896,82.270279 
	C289.860748,75.302948 296.475586,68.792320 302.541565,61.805183 
	C306.242462,57.542259 310.596100,56.276695 315.722992,57.051311 
	C322.844238,58.127243 329.912781,59.551651 336.837067,60.796879 
	C335.727234,63.570362 335.024567,65.793221 333.978546,67.840660 
	C331.953186,71.805054 329.902832,75.613510 324.236816,75.179230 
	C322.670685,75.059181 320.871063,76.879532 319.308716,77.992294 
	C307.941071,86.088600 294.594421,89.147278 281.555969,93.058762 
	C277.833832,94.175400 274.346741,96.075668 270.254395,96.703972 
	C274.497742,91.977989 278.741119,87.252007 283.230896,82.270279 
z"/>
<path fill="#000000" opacity="1.000000" stroke="none" 
	d="
M283.130371,61.094566 
	C283.488892,60.677113 284.052582,60.434166 284.616272,60.191223 
	C284.484558,60.526550 284.352844,60.861877 283.998352,61.388458 
	C283.628876,61.476162 283.482208,61.372616 283.130371,61.094566 
z"/>
</svg>